<svg width="24" height="24" viewBox="0 0 24 24" fill="none" xmlns="http://www.w3.org/2000/svg">
<mask id="mask0_3_16" style="mask-type:alpha" maskUnits="userSpaceOnUse" x="2" y="0" width="20" height="24">
<path fill-rule="evenodd" clip-rule="evenodd" d="M8.66874 1.30393C9.56457 0.461183 10.7641 0 12.0001 0C13.2361 0 14.4356 0.461183 15.3315 1.30393C16.2299 2.14912 16.7501 3.31233 16.7501 4.5426V11.3011C16.7501 11.9914 16.1905 12.5511 15.5001 12.5511C14.8098 12.5511 14.2501 11.9914 14.2501 11.3011V4.5426C14.2501 4.02636 14.0328 3.51461 13.6185 3.12483C13.2016 2.73261 12.6206 2.5 12.0001 2.5C11.3796 2.5 10.7987 2.73261 10.3817 3.12483C9.9674 3.51461 9.75011 4.02636 9.75011 4.5426V11.3011C9.75011 11.9914 9.19047 12.5511 8.50011 12.5511C7.80975 12.5511 7.25011 11.9914 7.25011 11.3011V4.5426C7.25011 3.31233 7.77032 2.14912 8.66874 1.30393Z" fill="#006FFD"/>
<path fill-rule="evenodd" clip-rule="evenodd" d="M2.87311 10.215C2.99492 8.51449 4.40998 7.19717 6.1148 7.19717H17.8853C19.5901 7.19717 21.0052 8.5145 21.127 10.215L21.8434 20.215C21.9781 22.0965 20.488 23.6972 18.6017 23.6972H5.39845C3.51208 23.6972 2.02197 22.0965 2.15676 20.215L2.87311 10.215ZM6.1148 9.69717C5.72138 9.69717 5.39483 10.0012 5.36672 10.3936L4.65037 20.3936C4.61927 20.8278 4.96314 21.1972 5.39845 21.1972H18.6017C19.037 21.1972 19.3809 20.8278 19.3497 20.3936L18.6334 10.3936C18.6053 10.0012 18.2787 9.69717 17.8853 9.69717H6.1148Z" fill="#006FFD"/>
</mask>
<g mask="url(#mask0_3_16)">
<rect width="24" height="24" fill="#2F3036"/>
</g>
</svg>
