<svg width="25" height="24" viewBox="0 0 25 24" fill="none" xmlns="http://www.w3.org/2000/svg">
<mask id="mask0_3_710" style="mask-type:alpha" maskUnits="userSpaceOnUse" x="2" y="3" width="21" height="18">
<path fill-rule="evenodd" clip-rule="evenodd" d="M2.7 4.5C2.7 4.10218 2.85051 3.72064 3.11842 3.43934C3.38632 3.15804 3.74969 3 4.12857 3H21.2714C21.6503 3 22.0137 3.15804 22.2816 3.43934C22.5495 3.72064 22.7 4.10218 22.7 4.5C22.7 4.89782 22.5495 5.27936 22.2816 5.56066C22.0137 5.84196 21.6503 6 21.2714 6H4.12857C3.74969 6 3.38632 5.84196 3.11842 5.56066C2.85051 5.27936 2.7 4.89782 2.7 4.5ZM2.7 12C2.7 11.6022 2.85051 11.2206 3.11842 10.9393C3.38632 10.658 3.74969 10.5 4.12857 10.5H21.2714C21.6503 10.5 22.0137 10.658 22.2816 10.9393C22.5495 11.2206 22.7 11.6022 22.7 12C22.7 12.3978 22.5495 12.7794 22.2816 13.0607C22.0137 13.342 21.6503 13.5 21.2714 13.5H4.12857C3.74969 13.5 3.38632 13.342 3.11842 13.0607C2.85051 12.7794 2.7 12.3978 2.7 12ZM2.7 19.5C2.7 19.1022 2.85051 18.7206 3.11842 18.4393C3.38632 18.158 3.74969 18 4.12857 18H21.2714C21.6503 18 22.0137 18.158 22.2816 18.4393C22.5495 18.7206 22.7 19.1022 22.7 19.5C22.7 19.8978 22.5495 20.2794 22.2816 20.5607C22.0137 20.842 21.6503 21 21.2714 21H4.12857C3.74969 21 3.38632 20.842 3.11842 20.5607C2.85051 20.2794 2.7 19.8978 2.7 19.5Z" fill="#006FFD"/>
</mask>
<g mask="url(#mask0_3_710)">
<rect x="0.699997" width="24" height="24" fill="#006FFD"/>
</g>
</svg>
